<svg id="Layer_1" data-name="Layer 1" xmlns="http://www.w3.org/2000/svg" viewBox="0 0 4540.72 1083.54"><defs><style>.cls-1{fill:#485461;}.cls-2{fill:#354ac4;}</style></defs><g id="type"><path class="cls-1" d="M630.21,521.19a10,10,0,0,0-9.94,9.61c-.89,24.2-3,87-5,117.93-3.77,57.66-27,106.36-72.81,142.39C512.12,815,477.34,827.83,437.9,827.65c-81.78-.37-252.09-.59-290.91-.64a8,8,0,0,1-8-8c0-66.76-.58-146.35,0-212,.32-36.15,13-72.21,28.67-104.49,23.19-47.91,63.22-76.2,114-90,19.72-5.36,111-8,136.32-8.11,9.47,0,11.39,1.59,11.44,10.79q.23,40.49,0,81c-.05,8.64-2.69,11.22-11.53,11.32-18.66.21-88.48,3.08-104.64,5.2A69.58,69.58,0,0,0,265,543c-8.57,13-9.06,13-16,27-1.7,3.42-5.39,21.31-5.49,25.24-.75,28-1.29,97.18-1.46,120.75a8,8,0,0,0,7.95,8c31,.15,143,.66,176.16.23s58.26-15,75.28-44.31c13.51-23.27,19.26-47.68,18.91-74.41-.68-52.64-.42-159.95-.4-160.95,0-2.68.09-4.89.11-6.7a8,8,0,0,1,8-7.9c63,0,475.43,0,481,0,15.2-.07,29-10,32-25,.75-3.71,1-15.23,1-23.13a8,8,0,0,1,7.93-7.93c22.22-.12,60.06-.16,84.13,0a8,8,0,0,1,7.94,8v4.95c.19,71.84-57.18,132.27-129,134.11C1011.81,521,689.35,520.93,630.21,521.19Z" transform="translate(-138.74 -79.7)"/><path class="cls-1" d="M953.42,682.2a8,8,0,0,0,5.2,14c25.3.41,68.12.65,92.27.24,25.91-.43,47.11-11.48,62.43-32.39,13.65-18.63,22.42-39,21.46-63-.75-18.84-.79-50.26-.78-72a8,8,0,0,1,8-8c17.74-.06,60.74-.16,83.08,0a8,8,0,0,1,7.92,8c-.11,19.39-.31,69.18.41,91.68,1.37,42.58-15.65,77.41-43.45,108.27-27.39,30.4-62.38,47.09-101.07,57.26-5,1.33-167.8,1.36-243.78,1.13-7.81,0-13.84,1.94-19.77,7.2-31,27.47-96.24,84.59-115.7,101.62a8,8,0,0,1-10.88-.32L640.09,838a8,8,0,0,1,.29-11.66c40.78-36.25,265.23-235.76,331-294.37a8,8,0,0,1,10.9.26c11.13,10.89,43.81,42.58,60.51,58.79a8,8,0,0,1-.25,11.7C1024.26,619,971.78,665.79,953.42,682.2Z" transform="translate(-138.74 -79.7)"/><path class="cls-1" d="M1526.6,812.44a15,15,0,0,1,.48-21.46c44.29-41.25,208.64-186.41,214.73-192.62,9.72-9.9,15.15-21.79,15.2-35.87.08-23.31-14.6-37.91-38-38.49-8-.2-52.38-.11-76.08,0a15,15,0,0,0-15,15c0,34.88.12,95.43,0,98.85-.57,11.2-3,12.87-13.92,13.21h-73a15,15,0,0,1-15-15c-.14-57.12-.45-135.2-.36-190.1a15,15,0,0,1,15-15c36.07,0,128.32-.09,174.16-.2,37.25-.08,70.55,11.14,98,36.32,36.53,33.56,51.8,75.7,42.19,124.65-5.89,30-22,55.79-43.42,77.56-16.31,16.62-174,154.91-216.77,192.32a15,15,0,0,1-20.55-.75C1562.06,848.63,1539.73,825.85,1526.6,812.44Z" transform="translate(-138.74 -79.7)"/><path class="cls-1" d="M1157.65,784.07a8,8,0,0,1,.45-11.48c38.25-34.21,216.14-193.67,220.54-198.46,9.9-10.78,14.95-23.43,14.06-38.29-1.11-18.48-11-30.54-29.24-34.19a94.71,94.71,0,0,0-19.86-1.32c-23.27.35-142.27,1.08-174.52,1.5a8,8,0,0,1-8.1-8c0-16.1-.11-58.64,0-78.84a8,8,0,0,1,8-8c34.75.17,171.93.85,190.17,1.25,66.1,1.43,121,49.3,132.62,114.48,5.38,30.16-1.63,57.48-15.7,83.71-10.51,19.58-24.4,36.52-40.41,51.83-45.44,43.47-180.63,159.65-210,184.83a8,8,0,0,1-10.91-.47C1198.25,825.85,1168.25,795.17,1157.65,784.07Z" transform="translate(-138.74 -79.7)"/><path class="cls-1" d="M1560.56,708.93a8,8,0,0,1-.72,11.39c-35.22,30.39-210.5,181.66-243,209.67a8,8,0,0,1-11-.6c-12.59-13.48-44.38-47.54-56.2-60.36a8,8,0,0,1,.62-11.44c35.16-30.7,208.2-181.15,242.92-211.44a8,8,0,0,1,11.17.65C1517.16,661,1549.94,697.08,1560.56,708.93Z" transform="translate(-138.74 -79.7)"/><rect class="cls-1" x="700.26" y="736.3" width="269" height="92" rx="46"/><path class="cls-1" d="M2639.26,790.3h169a50,50,0,0,1,50,50v0a44,44,0,0,1-44,44h-181a44,44,0,0,1-44-44v0a50,50,0,0,1,50-50Z"/><rect class="cls-1" x="787.26" y="842.3" width="93" height="93" rx="46.5"/><rect class="cls-1" x="1925.26" y="495.3" width="93" height="93" rx="46.5"/><path class="cls-1" d="M2908.31,625.1h67.94a15,15,0,0,1,15,14.77c.24,16,.52,40.88.64,54,.09,10.54,2.22,20.54,9.11,29,7.71,9.42,17.45,14,29.86,12.64,12.71-1.39,23.64-5.6,32.16-15.85,26.21-31.49,130.77-148.86,156.26-176.57,26.18-28.44,59.79-38.65,96.91-40.55,23.73-1.22,46.51,2.65,67.79,13.66,27.95,14.47,54.92,35.6,66,64.8,7,18.46,7.24,172.58,7.06,231.07a15,15,0,0,1-15,14.93c-40.23,0-150.57,0-190.12,0a15,15,0,0,1-15-15c0-19.16-.07-51.92,0-69.08a15,15,0,0,1,15-15c27.12,0,83.16,0,100.11,0a8,8,0,0,0,7.95-8c0-17.83.15-61,.21-80.32.05-16.63-6.85-28.81-22.35-35.72-15.7-7-30.35-6.08-43.94,5.14-19.64,16.22-131.08,151.16-176.3,193.55-5.64,5.29-33.72,23.39-56.55,24.57a183.63,183.63,0,0,1-41.79-2.4c-22.72-4-43.36-12.73-63.38-23.57-16.84-9.12-10.76-8.83-26.69-.26-18,9.66-36.44,17.64-56.37,22.7a125.5,125.5,0,0,1-30.51,3.57c-91.65.61-456.91.67-547.89,0-11.54-.08-13.07-2-12.87-13.61,0-.81,0-1.61,0-2.42a16.16,16.16,0,0,0-24-14.34h0c-11.32,6.31-22.65,12.78-34.56,17.82a162.77,162.77,0,0,1-66,12.81c-60.39-.54-170.75-.62-235-.61a50,50,0,0,1-50-50c0-53.58-.16-112.65.23-160.93.31-39.3,9.38-76.55,28.79-111,30.25-53.73,77.26-82.14,137.28-90.55,6.72-.94,38.28-1.65,67.94-2.07,14.08-.19,26.86,0,36.08.16a15,15,0,0,1,14.67,15c0,23.12,0,66.55,0,75.37a15,15,0,0,1-15.08,15c-23.78-.13-53.93-.36-72.18,0a162.36,162.36,0,0,0-30.67,3.68c-23.86,5.13-41.4,19.08-53.14,40.42a128,128,0,0,0-16,56.3c-1.42,31.65-1.51,75.12-1.83,108.61a8,8,0,0,0,8,8.06c29.33,0,131.13,0,180.71-.91,32.13-.55,56.4-16.1,72.27-44.33a134.25,134.25,0,0,0,17.29-65c.17-12.46.47-78,.6-107.89a15,15,0,0,1,14.93-14.93c19.07-.07,52-.19,71.11-.14a15,15,0,0,1,14.95,15.08c-.18,33.74-.82,114.56-2.74,132.68-2.48,23.56-7.66,46.65-17.36,68.53-6,13.51-3.94,16.42,11,16.5,12.34.06,24.67-.05,37-.14,11.84-.09,13.07-1.41,13.21-13.25.4-36.15,11-69.18,32.93-97.77,31.82-41.57,74-64.11,127-64.92,10-.15,20,.07,30-.12,10.71-.19,13.62-3,13.9-13.67.19-7.3.12-14.63-.18-21.93-.4-9.71,1.93-12,11.8-9.71,9.41,2.15,18.81,4.5,28,7.45,50.42,16.21,96.3,40.64,135.85,76.21a218.79,218.79,0,0,1,46.52,58.37c4.55,8.41,7.63,17.7,10.62,26.84,2.59,7.89,4,16.16,6.12,24.21a59.26,59.26,0,0,0,3.48,10.39c5.68,12,17,19.91,27,19,12.22-1.09,24.34-11.51,27.3-24.52a126.46,126.46,0,0,0,3.11-23.72c.38-11.17.67-32.81.9-47.47A15,15,0,0,1,2908.31,625.1Zm-257.6,95.66c1.33,10.36,5.85,13.65,16.11,13.75,11.32.11,22.66.13,34-.09,18.43-.35,30.37-12.87,29.78-31.36a134.93,134.93,0,0,0-2-16.83c-2.09-13.13-10-21.4-23.11-22.17-14.61-.86-29.31-.69-44-.39-7.78.15-10.72,3.32-11.23,11.21C2649.79,681.84,2649.66,712.59,2650.71,720.76Zm-83.77-45c-.48-8.54-3.08-11.86-11.29-12-14-.28-28-.45-41.88.44s-22.34,9.88-23.85,23.81a142.92,142.92,0,0,0-.39,17.93c.33,18.58,8.6,27.43,27.38,28.46,10.94.6,22,.41,32.92.09s15.64-4.58,16.57-15.8C2567,711.07,2567,676.43,2566.94,675.77Z" transform="translate(-138.74 -79.7)"/></g><g id="logo"><path id="_5" data-name="5" class="cls-2" d="M4138.6,79.7c307.06,1.43,541.32,249.15,540.86,542.67-.46,299.78-243,541.22-542.5,540.87-292.29-.35-540.82-234.53-541-542.5C3595.81,321.18,3838.56,79.55,4138.6,79.7Zm-.52,45.3c-279,1.15-496.52,225-496.34,496.8.19,273.3,220.33,495.73,495.85,496.1,270.34.36,496.67-216.39,496.87-496.11C4634.66,344.52,4412,126,4138.08,125Z" transform="translate(-138.74 -79.7)"/><path id="_4" data-name="4" class="cls-2" d="M4128,478.27a7,7,0,0,1-.39,11.48l-1.45.93c-38.42,24.36-74.42,51.68-104.82,85.81-24.66,27.69-44.36,58.39-54.41,94.39-13.8,49.41-7.29,97,14.87,142.72a273.35,273.35,0,0,0,25.43,42.34,190,190,0,0,0,47.38,45.27c58.14,39.19,180.8,120.94,212.75,142.29a4.9,4.9,0,0,1-1.26,8.77l-.08,0c-53.65,15.44-108.23,21.38-164,16.83q-138-11.25-246-97.55a444.94,444.94,0,0,1-94.54-103.71c-3.56-5.4-3-9.31-.15-14.47,22.71-41.48,132.87-242.34,165.67-301.07,14.84-26.57,31.86-51.71,54.82-72A167.38,167.38,0,0,1,4011,459.51c22.72-12.69,46.95-13.91,71.52-5.87C4099,459.05,4113.74,467.67,4128,478.27Z" transform="translate(-138.74 -79.7)"/><path id="_3" data-name="3" class="cls-2" d="M4581.75,554.59a7,7,0,0,1-10.87,6.75c-55.37-37.65-274.32-186.54-385.24-261.9-32.45-22.05-66.89-39.93-105.37-49.11-62.89-15-120.29-2.71-172.28,35.16a279.4,279.4,0,0,0-78.63,88.13c-34.24,59.85-98.09,171.59-126,220.33-3.67,6.42-13.46,3.5-13.07-3.88,10.06-189.84,157.33-386.29,392.91-414.35C4344.06,144.64,4550.08,331.73,4581.75,554.59Z" transform="translate(-138.74 -79.7)"/><path id="_2" data-name="2" class="cls-2" d="M4353.94,652q-58.63,84.57-116.25,167.7a7,7,0,0,1-8.89,2.27c-12.41-6.24-42.17-22.64-55.92-34.94a130.44,130.44,0,0,1-18.21-19.81c-14.12-19.26-16-40.25-4.34-61.06a162.8,162.8,0,0,1,23.18-31.09c16.64-17.84,36-32.74,56.25-46.29,17.83-11.91,37.27-19.22,59.14-18.24,26.4,1.17,46.83,13.42,64.49,32.78A7,7,0,0,1,4353.94,652Z" transform="translate(-138.74 -79.7)"/><path id="_1" data-name="1" class="cls-2" d="M4584.08,658.22c-9.05,153.58-107.19,300-250.66,367.59a7,7,0,0,1-8.77-10.29L4571.3,653.86A7,7,0,0,1,4584.08,658.22Z" transform="translate(-138.74 -79.7)"/></g></svg>